<mxfile host="Electron" agent="Mozilla/5.0 (Macintosh; Intel Mac OS X 10_15_7) AppleWebKit/537.36 (KHTML, like Gecko) draw.io/24.7.5 Chrome/126.0.6478.183 Electron/31.3.0 Safari/537.36" version="24.7.5">
  <diagram id="r1lJz0A7Nyj0sMlimptT" name="Страница 1">
    <mxGraphModel dx="1114" dy="894" grid="1" gridSize="10" guides="1" tooltips="1" connect="1" arrows="1" fold="1" page="1" pageScale="1" pageWidth="1169" pageHeight="827" math="0" shadow="0">
      <root>
        <mxCell id="0" />
        <mxCell id="1" parent="0" />
        <mxCell id="MNl9ufRquMUtiWXG3f_k-2" style="edgeStyle=orthogonalEdgeStyle;rounded=0;orthogonalLoop=1;jettySize=auto;html=1;strokeWidth=2;" edge="1" parent="1" source="mdWx8ZD84mnnf48JrDrc-1" target="mdWx8ZD84mnnf48JrDrc-2">
          <mxGeometry relative="1" as="geometry" />
        </mxCell>
        <mxCell id="mdWx8ZD84mnnf48JrDrc-1" value="Service A" style="rounded=1;whiteSpace=wrap;html=1;strokeWidth=2;fontSize=15;fontStyle=1;fillColor=#f8cecc;strokeColor=#b85450;fillStyle=cross-hatch;" parent="1" vertex="1">
          <mxGeometry x="310" y="290" width="120" height="60" as="geometry" />
        </mxCell>
        <mxCell id="mdWx8ZD84mnnf48JrDrc-2" value="Service B" style="rounded=1;whiteSpace=wrap;html=1;strokeWidth=2;fontSize=15;fontStyle=1;fillColor=#ffe6cc;strokeColor=#d79b00;fillStyle=cross-hatch;" parent="1" vertex="1">
          <mxGeometry x="550" y="290" width="120" height="60" as="geometry" />
        </mxCell>
        <mxCell id="mdWx8ZD84mnnf48JrDrc-4" value="TEAM 1" style="shape=umlActor;verticalLabelPosition=bottom;verticalAlign=top;html=1;outlineConnect=0;fontSize=15;strokeWidth=2;" parent="1" vertex="1">
          <mxGeometry x="350" y="390" width="30" height="60" as="geometry" />
        </mxCell>
        <mxCell id="mdWx8ZD84mnnf48JrDrc-5" value="TEAM 2" style="shape=umlActor;verticalLabelPosition=bottom;verticalAlign=top;html=1;outlineConnect=0;fontSize=15;strokeWidth=2;" parent="1" vertex="1">
          <mxGeometry x="595" y="390" width="30" height="60" as="geometry" />
        </mxCell>
        <mxCell id="bo4t_Jb4_6fKJdvoGLDs-14" value="REST API" style="text;html=1;strokeColor=none;fillColor=none;align=center;verticalAlign=middle;whiteSpace=wrap;rounded=0;fontStyle=1" parent="1" vertex="1">
          <mxGeometry x="460" y="290" width="70" height="30" as="geometry" />
        </mxCell>
      </root>
    </mxGraphModel>
  </diagram>
</mxfile>
